PathFileType	4	(X/Y/Z)	c:/Users/goper/Files/vsCode/490R/osim_files/C04/C04_Static.trc
DataRate	CameraRate	NumFrames	NumMarkers	Units                	OrigDataRate	OrigDataStartFrame	OrigNumFrames
250.00	250.00	5	36	mm	250.0	542	1445
                Frame#	Time	LPSIS			LASIS			LTH1			LTH2			LTH3			LTH4			LLFE			LMFE			LSH1			LSH2			LSH3			LSH4			LLMAL			LMMAL			LCAL			LMTP5			LTOE			LMTP1			RPSIS			RASIS			RTH1			RTH2			RTH3			RTH4			RLFE			RMFE			RSH1			RSH2			RSH3			RSH4			RLMAL			RMMAL			RCAL			RMTP1			RTOE			RMTP5		
		X1	Y1	Z1	X2	Y2	Z2	X3	Y3	Z3	X4	Y4	Z4	X5	Y5	Z5	X6	Y6	Z6	X7	Y7	Z7	X8	Y8	Z8	X9	Y9	Z9	X10	Y10	Z10	X11	Y11	Z11	X12	Y12	Z12	X13	Y13	Z13	X14	Y14	Z14	X15	Y15	Z15	X16	Y16	Z16	X17	Y17	Z17	X18	Y18	Z18	X19	Y19	Z19	X20	Y20	Z20	X21	Y21	Z21	X22	Y22	Z22	X23	Y23	Z23	X24	Y24	Z24	X25	Y25	Z25	X26	Y26	Z26	X27	Y27	Z27	X28	Y28	Z28	X29	Y29	Z29	X30	Y30	Z30	X31	Y31	Z31	X32	Y32	Z32	X33	Y33	Z33	X34	Y34	Z34	X35	Y35	Z35	X36	Y36	Z36

542	2.16400	-354.51669	978.14697	415.55380	-187.88963	962.42847	339.18909	-324.37637	730.46112	277.57535	-320.38998	668.70215	281.58395	-259.64713	740.12347	264.48483	-245.83884	678.75415	267.56003	-298.43918	463.16754	280.02197	-282.68466	436.95618	393.13394	-362.25153	364.05783	268.37964	-370.92230	316.84805	267.40482	-310.90125	361.53021	258.02948	-311.31552	314.33929	255.23009	-347.90219	76.92645	252.51144	-324.17459	91.05402	343.56012	-404.85309	48.30395	312.84348	-220.28816	21.52158	210.55130	-186.38710	47.54628	258.20584	-205.95387	21.48103	317.34354	-354.19031	980.80249	490.35684	-184.90593	958.00299	553.03571	-313.63818	748.04578	633.73224	-316.45374	684.83417	630.03986	-249.40692	751.32294	637.29340	-238.81627	689.85394	635.60748	-285.11145	465.91641	619.88397	-285.93427	448.36057	508.27588	-362.72818	339.54837	645.39789	-356.50085	294.39755	647.56232	-301.20673	340.71606	648.35632	-303.97794	293.71402	652.20367	-336.53708	80.41769	648.19360	-314.16782	87.71542	559.11346	-392.21259	48.17774	594.72913	-190.21367	31.25698	586.38922	-166.69101	47.25313	635.63293	-209.18568	17.79124	690.78693
543	2.16800	-354.54739	978.18958	415.62823	-187.94225	962.40521	339.19003	-324.36475	730.42981	277.56625	-320.45328	668.64154	281.64432	-259.66382	740.12421	264.50192	-245.85298	678.75897	267.56497	-298.45587	463.16211	280.04056	-282.72879	436.92514	393.14413	-362.20966	364.07132	268.34351	-370.93658	316.83917	267.41559	-310.87943	361.53247	258.02386	-311.30460	314.31799	255.24556	-347.91138	76.93083	252.50056	-323.84015	91.18501	343.48242	-404.82706	48.28949	312.87637	-220.31221	21.50876	210.56093	-186.41805	47.53027	258.21942	-206.00148	21.44460	317.36505	-354.19937	980.83472	490.41534	-184.94359	957.98773	553.05920	-313.66647	748.01569	633.77087	-316.50546	684.84003	630.09253	-249.46579	751.30261	637.30096	-238.81544	689.84454	635.62439	-285.12903	465.92169	619.90698	-285.92514	448.34885	508.28107	-362.72461	339.56842	645.47070	-356.50851	294.37671	647.59509	-301.22897	340.69196	648.36450	-304.02039	293.69980	652.18469	-336.57571	80.39663	648.21014	-314.17917	87.69365	559.13544	-392.23187	48.14739	594.77643	-190.22600	31.26585	586.40558	-166.70177	47.24350	635.65393	-209.21846	17.77463	690.79968
544	2.17200	-354.62317	978.26196	415.66653	-187.92531	962.40631	339.18524	-324.41345	730.41876	277.57404	-320.42465	668.66071	281.61154	-259.63931	740.13281	264.50571	-245.86189	678.77057	267.56454	-298.45566	463.16403	280.03323	-282.71677	436.94165	393.14438	-362.26352	364.02048	268.39148	-370.91907	316.85779	267.40521	-310.89679	361.53061	258.03784	-311.27469	314.31714	255.24327	-347.93881	76.90845	252.52251	-324.19299	90.99596	343.56503	-404.83563	48.29797	312.86581	-220.30885	21.50794	210.55911	-186.39450	47.52898	258.19464	-205.98825	21.43299	317.34326	-354.22760	980.84222	490.48691	-184.93962	957.99078	553.05444	-313.67767	748.00116	633.77631	-316.48535	684.82690	630.08026	-249.44003	751.31177	637.29462	-238.80161	689.83716	635.60986	-285.14301	465.91357	619.91614	-285.93347	448.31415	508.27286	-362.69470	339.57251	645.46606	-356.48300	294.38666	647.57611	-301.22238	340.68842	648.36316	-303.98767	293.67569	652.19604	-336.56583	80.37897	648.22778	-314.18954	87.67958	559.12091	-392.23831	48.16551	594.77173	-190.22311	31.23645	586.40430	-166.69600	47.24144	635.63483	-209.22592	17.77615	690.80499
545	2.17600	-354.60123	978.21411	415.62048	-187.96199	962.38031	339.17410	-324.39102	730.44733	277.52542	-320.42001	668.64819	281.59689	-259.67517	740.13831	264.51138	-245.87270	678.73840	267.56702	-298.45377	463.16144	280.01932	-282.72647	436.92261	393.14209	-362.23981	364.02328	268.35995	-370.91595	316.82532	267.39328	-310.90485	361.53323	258.02612	-311.33087	314.30692	255.22618	-347.91727	76.88915	252.49596	-324.19772	91.01157	343.55396	-404.84998	48.31434	312.84012	-220.31812	21.51084	210.54198	-186.40965	47.53805	258.18521	-205.93817	21.46427	317.34549	-354.21686	980.84802	490.46490	-184.91829	957.99927	553.04907	-313.59778	748.04785	633.80170	-316.40518	684.83929	630.11444	-249.47624	751.29901	637.29236	-238.79820	689.84967	635.60663	-285.08987	465.93060	619.91010	-285.91293	448.34174	508.27533	-362.65469	339.58252	645.48145	-356.46991	294.40292	647.55127	-301.14645	340.72650	648.34576	-303.96036	293.69092	652.19336	-336.51248	80.42104	648.21582	-314.20276	87.67497	559.11499	-392.20190	48.14974	594.72437	-190.21349	31.25650	586.39532	-166.67957	47.24289	635.61517	-209.13010	17.82392	690.81555
546	2.18000	-354.63052	978.21722	415.64789	-187.99104	962.37305	339.17188	-324.37375	730.44672	277.53082	-320.44427	668.62311	281.57816	-259.68567	740.11066	264.49542	-245.91620	678.75629	267.56482	-298.46246	463.15433	280.02847	-282.75687	436.91971	393.14514	-362.23706	364.04489	268.33707	-370.96497	316.80298	267.39764	-310.94171	361.51782	258.01105	-311.35168	314.32034	255.22739	-347.90234	76.90520	252.46170	-324.16403	91.02868	343.55133	-404.86084	48.27948	312.85800	-220.31938	21.48210	210.53351	-186.36861	47.55105	258.18301	-205.91876	21.46970	317.31223	-354.27133	980.84955	490.52472	-184.88515	958.02618	553.04822	-313.56250	748.03510	633.79333	-316.40900	684.84595	630.11243	-249.38127	751.33411	637.30505	-238.77757	689.85760	635.60046	-285.04596	465.96344	619.92609	-285.95096	448.33011	508.27286	-362.63351	339.58347	645.47614	-356.36758	294.40689	647.58215	-301.15726	340.71356	648.34589	-303.88461	293.74780	652.19611	-336.44711	80.46958	648.22424	-314.20676	87.67448	559.09540	-392.16632	48.15616	594.68243	-190.18967	31.25483	586.38379	-166.66246	47.23476	635.60443	-209.11795	17.83332	690.80273
